{
    "asset" : {
        "generator" : "Khronos glTF Blender I/O v1.8.19",
        "version" : "2.0"
    },
    "scene" : 0,
    "scenes" : [
        {
            "name" : "Scene",
            "nodes" : [
                0
            ]
        }
    ],
    "nodes" : [
        {
            "mesh" : 0,
            "name" : "\u9ad8\u538b\u585413"
        }
    ],
    "materials" : [
        {
            "doubleSided" : true,
            "name" : "Mat3d66-1506156-3-7209.012",
            "pbrMetallicRoughness" : {
                "baseColorFactor" : [
                    0.556863009929657,
                    0.564706027507782,
                    0.5725489854812622,
                    1
                ],
                "metallicFactor" : 0,
                "roughnessFactor" : 0.5
            }
        }
    ],
    "meshes" : [
        {
            "name" : "Obj3d66-1506156-6-426",
            "primitives" : [
                {
                    "attributes" : {
                        "POSITION" : 0,
                        "NORMAL" : 1,
                        "TEXCOORD_0" : 2,
                        "TEXCOORD_1" : 3
                    },
                    "indices" : 4,
                    "material" : 0
                }
            ]
        }
    ],
    "accessors" : [
        {
            "bufferView" : 0,
            "componentType" : 5126,
            "count" : 8918,
            "max" : [
                2.352935314178467,
                23.522674560546875,
                1.9689679145812988
            ],
            "min" : [
                -2.3529350757598877,
                0,
                -1.9689679145812988
            ],
            "type" : "VEC3"
        },
        {
            "bufferView" : 1,
            "componentType" : 5126,
            "count" : 8918,
            "type" : "VEC3"
        },
        {
            "bufferView" : 2,
            "componentType" : 5126,
            "count" : 8918,
            "type" : "VEC2"
        },
        {
            "bufferView" : 3,
            "componentType" : 5126,
            "count" : 8918,
            "type" : "VEC2"
        },
        {
            "bufferView" : 4,
            "componentType" : 5123,
            "count" : 8964,
            "type" : "SCALAR"
        }
    ],
    "bufferViews" : [
        {
            "buffer" : 0,
            "byteLength" : 107016,
            "byteOffset" : 0
        },
        {
            "buffer" : 0,
            "byteLength" : 107016,
            "byteOffset" : 107016
        },
        {
            "buffer" : 0,
            "byteLength" : 71344,
            "byteOffset" : 214032
        },
        {
            "buffer" : 0,
            "byteLength" : 71344,
            "byteOffset" : 285376
        },
        {
            "buffer" : 0,
            "byteLength" : 17928,
            "byteOffset" : 356720
        }
    ],
    "buffers" : [
        {
            "byteLength" : 374648,
            "uri" : "data:application/octet-stream;base64,"
        }
    ]
}
